<?xml version="1.0" encoding="UTF-8" standalone="no"?>
<!-- Created with Inkscape (http://www.inkscape.org/) -->

<svg
   xmlns:dc="http://purl.org/dc/elements/1.1/"
   xmlns:cc="http://creativecommons.org/ns#"
   xmlns:rdf="http://www.w3.org/1999/02/22-rdf-syntax-ns#"
   xmlns:svg="http://www.w3.org/2000/svg"
   xmlns="http://www.w3.org/2000/svg"
   xmlns:sodipodi="http://sodipodi.sourceforge.net/DTD/sodipodi-0.dtd"
   xmlns:inkscape="http://www.inkscape.org/namespaces/inkscape"
   width="1280"
   height="720"
   viewBox="0 0 1200 675"
   id="svg2"
   version="1.1"
   inkscape:version="0.92.3 (2405546, 2018-03-11)"
   sodipodi:docname="talk-announcement.svg"
   inkscape:export-filename="/home/meisterluk/Desktop/rustgraz-logo/uhrturm.small.png"
   inkscape:export-xdpi="36.290001"
   inkscape:export-ydpi="36.290001">
  <defs
     id="defs4" />
  <sodipodi:namedview
     id="base"
     pagecolor="#ffffff"
     bordercolor="#666666"
     borderopacity="1.0"
     inkscape:pageopacity="0"
     inkscape:pageshadow="2"
     inkscape:zoom="1.1638889"
     inkscape:cx="640"
     inkscape:cy="360"
     inkscape:document-units="px"
     inkscape:current-layer="layer1"
     showgrid="false"
     inkscape:window-width="1920"
     inkscape:window-height="1017"
     inkscape:window-x="0"
     inkscape:window-y="34"
     inkscape:window-maximized="1"
     inkscape:pagecheckerboard="false"
     units="px" />
  <metadata
     id="metadata7">
    <rdf:RDF>
      <cc:Work
         rdf:about="">
        <dc:format>image/svg+xml</dc:format>
        <dc:type
           rdf:resource="http://purl.org/dc/dcmitype/StillImage" />
        <dc:title></dc:title>
      </cc:Work>
    </rdf:RDF>
  </metadata>
  <g
     inkscape:label="Layer 1"
     inkscape:groupmode="layer"
     id="layer1"
     transform="translate(0,-377.36224)">
    <g
       id="g960"
       transform="matrix(2.1059073,0,0,2.1059073,167.52164,-1170.3905)">
      <flowRoot
         transform="matrix(0.3902548,0,0,0.3902548,-338.42357,581.27736)"
         style="font-style:normal;font-variant:normal;font-weight:normal;font-stretch:normal;font-size:133.33332825px;line-height:1;font-family:'Gentium Plus';-inkscape-font-specification:'Gentium Plus';text-align:center;letter-spacing:0px;word-spacing:0px;text-anchor:middle;fill:#000000;fill-opacity:1;stroke:none"
         id="flowRoot886-2"
         xml:space="preserve"><flowRegion
           style="text-align:center;text-anchor:middle"
           id="flowRegion888-8"><rect
             style="text-align:center;text-anchor:middle"
             y="499.827"
             x="1015.3608"
             height="680.36664"
             width="776.87427"
             id="rect890-9" /></flowRegion><flowPara
           id="flowPara886-3"
           style="font-style:normal;font-variant:normal;font-weight:normal;font-stretch:normal;font-family:'Yanone Kaffeesatz';-inkscape-font-specification:'Yanone Kaffeesatz';text-align:center;text-anchor:middle;fill:#000000;fill-opacity:1">Introduction to rust and its memory safety</flowPara></flowRoot>      <path
         sodipodi:nodetypes="ccccc"
         inkscape:connector-curvature="0"
         id="path846-6"
         d="M 338.51278,765.57457 H 71.27354 l 0.713691,3.23903 H 339.45525 Z"
         style="fill:#885c31;fill-opacity:1;stroke:none;stroke-width:0.1978506px;stroke-linecap:butt;stroke-linejoin:miter;stroke-opacity:1" />
      <path
         sodipodi:nodetypes="ccccc"
         inkscape:connector-curvature="0"
         id="path846-6-2"
         d="M 338.51278,943.69957 H 71.273527 l 0.713698,3.239 H 339.45525 Z"
         style="fill:#885c31;fill-opacity:1;stroke:none;stroke-width:0.1978506px;stroke-linecap:butt;stroke-linejoin:miter;stroke-opacity:1" />
      <flowRoot
         transform="matrix(0.3902548,0,0,0.3902548,-337.48336,757.52736)"
         style="font-style:normal;font-variant:normal;font-weight:normal;font-stretch:normal;font-size:38.43642426px;line-height:1;font-family:'Gentium Plus';-inkscape-font-specification:'Gentium Plus';text-align:center;letter-spacing:0px;word-spacing:0px;text-anchor:middle;fill:#000000;fill-opacity:1;stroke:none"
         id="flowRoot886-2-3"
         xml:space="preserve"><flowRegion
           style="text-align:center;text-anchor:middle"
           id="flowRegion888-8-6"><rect
             style="text-align:center;text-anchor:middle"
             y="499.827"
             x="1015.3608"
             height="56.676849"
             width="750.39691"
             id="rect890-9-7" /></flowRegion><flowPara
           id="flowPara886-3-5"
           style="font-style:normal;font-variant:normal;font-weight:normal;font-stretch:normal;font-family:'Yanone Kaffeesatz';-inkscape-font-specification:'Yanone Kaffeesatz';text-align:center;text-anchor:middle;fill:#000000;fill-opacity:1">https://lukas-prokop.at/articles/2020-09-14-rust-talk</flowPara></flowRoot>      <path
         style="stroke-width:0.43990898"
         inkscape:connector-curvature="0"
         id="path3"
         d="m 228.07117,1001.2809 -1.93296,-1.1966 c -0.0163,-0.18834 -0.0348,-0.37614 -0.055,-0.56314 l 1.6611,-1.5493 c 0.16892,-0.1575 0.24459,-0.3907 0.19884,-0.6164 -0.0444,-0.2265 -0.20324,-0.413 -0.41924,-0.4935 l -2.12344,-0.7941 c -0.0532,-0.1838 -0.1091,-0.3664 -0.16629,-0.5481 l 1.32457,-1.8397 c 0.13505,-0.187 0.16277,-0.4302 0.0748,-0.6436 -0.088,-0.2125 -0.28023,-0.3647 -0.50766,-0.4021 l -2.23914,-0.3642 c -0.0871,-0.1698 -0.17772,-0.337 -0.26922,-0.5028 l 0.94097,-2.0654 c 0.0963,-0.2103 0.0765,-0.4549 -0.0519,-0.6458 -0.12802,-0.1918 -0.34489,-0.304 -0.57628,-0.2952 l -2.27257,0.079 c -0.11746,-0.1469 -0.23711,-0.2925 -0.35897,-0.4355 l 0.52217,-2.2136 c 0.0528,-0.2248 -0.0136,-0.46015 -0.17728,-0.62335 -0.16233,-0.16277 -0.39812,-0.23008 -0.62291,-0.17729 l -2.21318,0.52173 c -0.14342,-0.12141 -0.28902,-0.24151 -0.4364,-0.35896 l 0.0796,-2.27257 c 0.009,-0.23007 -0.10338,-0.44871 -0.29518,-0.57628 -0.19224,-0.12846 -0.43551,-0.14781 -0.64535,-0.0524 l -2.06493,0.94141 c -0.16673,-0.0915 -0.33389,-0.18213 -0.50282,-0.26967 l -0.36512,-2.23958 c -0.037,-0.22699 -0.18916,-0.41967 -0.40208,-0.50765 -0.21247,-0.0884 -0.45618,-0.0598 -0.64314,0.0748 l -1.84102,1.32457 c -0.18125,-0.0576 -0.36337,-0.11306 -0.54725,-0.16585 l -0.79404,-2.12388 c -0.0805,-0.21643 -0.26702,-0.37524 -0.49357,-0.42011 -0.22612,-0.0444 -0.45883,0.0308 -0.61588,0.19884 l -1.54935,1.66242 c -0.18697,-0.0207 -0.37525,-0.0396 -0.56309,-0.055 l -1.19655,-1.9334 c -0.12098,-0.19576 -0.33521,-0.31498 -0.56572,-0.31498 -0.23052,0 -0.44475,0.11922 -0.56529,0.31498 l -1.19655,1.9334 c -0.18828,0.0154 -0.37656,0.0343 -0.56352,0.055 l -1.5498,-1.66242 c -0.15705,-0.16805 -0.3902,-0.24327 -0.61588,-0.19884 -0.22655,0.0453 -0.41307,0.20368 -0.49357,0.42011 l -0.79404,2.12388 c -0.18388,0.0528 -0.366,0.10866 -0.54769,0.16585 l -1.84058,-1.32457 c -0.18696,-0.13505 -0.43067,-0.16364 -0.64358,-0.0748 -0.21248,0.088 -0.36513,0.28066 -0.40208,0.50765 l -0.36512,2.23958 c -0.16893,0.0875 -0.33609,0.17772 -0.50282,0.26967 l -2.06493,-0.94141 c -0.20984,-0.0959 -0.45443,-0.0761 -0.64535,0.0524 -0.1918,0.12757 -0.30398,0.34621 -0.29518,0.57628 l 0.0792,2.27257 c -0.14694,0.11745 -0.29254,0.23755 -0.43639,0.35896 l -2.21319,-0.52173 c -0.22479,-0.0523 -0.46058,0.0145 -0.62335,0.17729 -0.16364,0.1632 -0.23007,0.39855 -0.17728,0.62335 l 0.52129,2.2136 c -0.12097,0.1434 -0.24063,0.2886 -0.35808,0.4355 l -2.27257,-0.079 c -0.2292,-0.01 -0.44827,0.1034 -0.57628,0.2952 -0.12846,0.1909 -0.14781,0.4355 -0.0523,0.6458 l 0.9414,2.0654 c -0.0915,0.1658 -0.18212,0.333 -0.26966,0.5028 l -2.23914,0.3642 c -0.22743,0.037 -0.41923,0.1892 -0.50766,0.4021 -0.088,0.2134 -0.0594,0.4566 0.0748,0.6436 l 1.32457,1.8397 c -0.0576,0.1817 -0.1135,0.3643 -0.16629,0.5481 l -2.12388,0.7941 c -0.21555,0.081 -0.37436,0.267 -0.41923,0.4935 -0.0449,0.2261 0.0304,0.4589 0.19884,0.6164 l 1.66153,1.5493 c -0.0207,0.187 -0.0392,0.3752 -0.055,0.56314 l -1.93296,1.1966 c -0.19576,0.1209 -0.31497,0.3347 -0.31497,0.5657 0,0.2309 0.11921,0.4447 0.31497,0.5653 l 1.93296,1.1965 c 0.0159,0.1883 0.0343,0.3761 0.055,0.5631 l -1.66153,1.5498 c -0.16849,0.1571 -0.24371,0.3902 -0.19884,0.6159 0.0449,0.2265 0.20368,0.4126 0.41923,0.4936 l 2.12388,0.794 c 0.0528,0.1839 0.10866,0.3664 0.16629,0.5481 l -1.32457,1.8402 c -0.13461,0.1873 -0.16321,0.4306 -0.0748,0.6431 0.0884,0.2134 0.28067,0.3656 0.5081,0.4021 l 2.2387,0.3642 c 0.0875,0.1698 0.17728,0.337 0.26966,0.5037 l -0.9414,2.0645 c -0.0959,0.2098 -0.0761,0.454 0.0523,0.6458 0.12845,0.1922 0.34708,0.3044 0.57628,0.2952 l 2.27169,-0.08 c 0.11833,0.1478 0.23755,0.2926 0.35896,0.4364 l -0.52129,2.2141 c -0.0528,0.2244 0.0136,0.4588 0.17728,0.622 0.16233,0.1641 0.39856,0.2297 0.62335,0.1769 l 2.21319,-0.5213 c 0.14385,0.1223 0.28945,0.241 0.43639,0.3581 l -0.0792,2.273 c -0.009,0.2301 0.10338,0.4483 0.29518,0.5767 0.19092,0.128 0.43551,0.1474 0.64535,0.052 l 2.06493,-0.941 c 0.16628,0.092 0.33345,0.1821 0.50282,0.2697 l 0.36512,2.2382 c 0.0369,0.2279 0.18916,0.4206 0.40208,0.5081 0.21247,0.089 0.45662,0.06 0.64358,-0.074 l 1.8397,-1.3255 c 0.18169,0.058 0.36425,0.114 0.54813,0.1667 l 0.79404,2.1231 c 0.0805,0.2155 0.26702,0.3752 0.49357,0.4192 0.22612,0.046 0.45883,-0.03 0.61588,-0.1989 l 1.5498,-1.6615 c 0.18696,0.021 0.37524,0.04 0.56352,0.056 l 1.19655,1.933 c 0.12054,0.1949 0.33477,0.315 0.56528,0.315 0.23052,0 0.44475,-0.1197 0.56573,-0.315 l 1.19655,-1.933 c 0.18828,-0.017 0.37612,-0.035 0.56308,-0.056 l 1.54936,1.6615 c 0.15705,0.169 0.3902,0.2446 0.61588,0.1989 0.22655,-0.044 0.41307,-0.2037 0.49357,-0.4192 l 0.79404,-2.1231 c 0.18388,-0.053 0.36644,-0.109 0.54813,-0.1667 l 1.84013,1.3255 c 0.18697,0.1342 0.43068,0.1628 0.64315,0.074 0.21292,-0.088 0.36513,-0.2807 0.40208,-0.5081 l 0.36513,-2.2382 c 0.16892,-0.088 0.33608,-0.1786 0.50281,-0.2697 l 2.06493,0.941 c 0.20984,0.096 0.45399,0.076 0.64535,-0.052 0.1918,-0.1284 0.30354,-0.3462 0.29518,-0.5767 l -0.0792,-2.273 c 0.14693,-0.1175 0.29255,-0.2358 0.43596,-0.3581 l 2.21318,0.5213 c 0.22479,0.053 0.46058,-0.013 0.62291,-0.1769 0.16364,-0.1632 0.23007,-0.3976 0.17728,-0.622 l -0.52129,-2.2141 c 0.12142,-0.1438 0.24107,-0.2886 0.35808,-0.4364 l 2.27257,0.08 c 0.2292,0.01 0.44827,-0.103 0.57629,-0.2952 0.12845,-0.1918 0.14825,-0.436 0.0519,-0.6458 l -0.94096,-2.0645 c 0.0919,-0.1667 0.18212,-0.3339 0.26923,-0.5037 l 2.23913,-0.3642 c 0.22787,-0.037 0.41968,-0.1887 0.50766,-0.4021 0.088,-0.2125 0.0603,-0.4558 -0.0748,-0.6431 l -1.32456,-1.8402 c 0.0572,-0.1817 0.11305,-0.3642 0.16628,-0.5481 l 2.12344,-0.794 c 0.216,-0.081 0.37525,-0.2671 0.41923,-0.4936 0.0458,-0.2261 -0.0299,-0.4588 -0.19883,-0.6159 l -1.6611,-1.5498 c 0.0202,-0.187 0.0387,-0.3752 0.055,-0.5631 l 1.93296,-1.1965 c 0.19576,-0.1206 0.31497,-0.3348 0.31497,-0.5653 0,-0.2305 -0.11877,-0.4448 -0.31453,-0.5657 z m -12.93729,16.0351 c -0.73816,-0.1593 -1.20755,-0.8869 -1.04918,-1.6272 0.15793,-0.7395 0.8851,-1.2102 1.62282,-1.051 0.73817,0.1579 1.20843,0.8869 1.05007,1.6259 -0.15837,0.7391 -0.88598,1.2102 -1.62371,1.0523 z m -0.65678,-4.4422 c -0.6735,-0.1443 -1.336,0.2841 -1.4803,0.959 l -0.68625,3.2025 c -2.11772,0.9612 -4.46948,1.4953 -6.94616,1.4953 -2.53344,0 -4.93622,-0.5605 -7.09178,-1.5626 l -0.68582,-3.2025 c -0.14429,-0.674 -0.80679,-1.1033 -1.47985,-0.9586 l -2.82729,0.6071 c -0.52482,-0.5402 -1.01311,-1.1156 -1.46182,-1.7231 h 13.75683 c 0.15573,0 0.25955,-0.028 0.25955,-0.1699 v -4.8662 c 0,-0.1417 -0.10382,-0.1698 -0.25955,-0.1698 h -4.02341 v -3.0846 h 4.35158 c 0.39724,0 2.12388,0.1134 2.67597,2.3205 0.17288,0.6788 0.55252,2.8866 0.81207,3.5936 0.25867,0.7927 1.31181,2.3764 2.43402,2.3764 h 6.8551 c 0.0779,0 0.16101,-0.01 0.24855,-0.025 -0.47554,0.6463 -0.99727,1.2577 -1.55904,1.8292 z m -19.02694,4.3753 c -0.73817,0.1593 -1.4649,-0.3114 -1.62371,-1.0509 -0.15793,-0.7408 0.31146,-1.468 1.04962,-1.6272 0.73817,-0.158 1.46534,0.3127 1.62371,1.0522 0.15793,0.739 -0.3119,1.4676 -1.04962,1.6259 z m -5.21864,-21.16184 c 0.30617,0.6911 -0.005,1.5009 -0.6955,1.8067 -0.69022,0.3066 -1.49789,-0.01 -1.80407,-0.6968 -0.30617,-0.6916 0.005,-1.5001 0.6955,-1.8067 0.69066,-0.3062 1.49789,0.01 1.80407,0.6968 z m -1.60391,3.8021 2.94519,-1.3087 c 0.62907,-0.2794 0.91325,-1.0166 0.63391,-1.647 l -0.60664,-1.3717 h 2.38563 v 10.75324 h -4.81304 c -0.41748,-1.4675 -0.64139,-3.0165 -0.64139,-4.6173 0,-0.611 0.033,-1.2151 0.0963,-1.80854 z m 12.92452,-1.0443 v -3.1696 h 5.68099 c 0.29342,0 2.07197,0.3392 2.07197,1.6691 0,1.1041 -1.36416,1.5 -2.48593,1.5 h -5.26703 z m 20.64581,2.85284 c 0,0.4205 -0.0154,0.8367 -0.0462,1.2498 h -1.72708 c -0.17288,0 -0.24239,0.1135 -0.24239,0.2829 v 0.7931 c 0,1.867 -1.0527,2.273 -1.97519,2.3764 -0.8785,0.099 -1.85246,-0.3678 -1.97255,-0.9054 -0.51822,-2.9148 -1.38176,-3.5373 -2.74548,-4.6128 1.69234,-1.07474 3.45329,-2.66024 3.45329,-4.78234 0,-2.2915 -1.57092,-3.7348 -2.64165,-4.4426 -1.50229,-0.9903 -3.16559,-1.1887 -3.6143,-1.1887 h -17.86161 c 2.42214,-2.7032 5.70474,-4.61813 9.41757,-5.31495 l 2.10541,2.20879 c 0.47598,0.49846 1.26429,0.51686 1.76227,0.0405 l 2.35571,-2.25317 c 4.93622,0.91897 9.11536,3.99167 11.52386,8.20737 l -1.61271,3.6424 c -0.27846,0.6304 0.006,1.3677 0.63435,1.647 l 3.10488,1.3792 c 0.0537,0.5512 0.0818,1.1081 0.0818,1.6725 z m -17.8493,-18.42344 c 0.54548,-0.52261 1.41078,-0.50193 1.93296,0.0444 0.52129,0.54769 0.50149,1.41387 -0.0453,1.93604 -0.54548,0.52261 -1.41078,0.50238 -1.93295,-0.0449 -0.52086,-0.54681 -0.50106,-1.41299 0.0453,-1.9356 z m 16.00389,12.8792 c 0.30573,-0.6911 1.1134,-1.003 1.80362,-0.6964 0.69022,0.3062 1.00167,1.1157 0.6955,1.8067 -0.30574,0.6916 -1.11341,1.0035 -1.80407,0.6969 -0.68933,-0.3062 -1.00079,-1.1152 -0.69505,-1.8072 z" />
    </g>
  </g>
</svg>
